<svg width="186" height="81" viewBox="0 0 186 81" fill="none" xmlns="http://www.w3.org/2000/svg">
<g clip-path="url(#clip0_7240_23661)">
<rect width="185.826" height="81" fill="white"/>
<path d="M32.7882 74.6349C36.1035 74.6349 38.7912 71.9473 38.7912 68.6319C38.7912 65.3165 36.1035 62.6289 32.7882 62.6289C29.4728 62.6289 26.7852 65.3165 26.7852 68.6319C26.7852 71.9473 29.4728 74.6349 32.7882 74.6349Z" fill="#191970"/>
<path d="M41.95 0.00676014V29.2342L31.269 32.7968C28.9199 29.6635 25.1849 27.6355 20.9733 27.6355C20.4224 27.6355 19.8816 27.6726 19.3509 27.7369C13.02 28.5379 8.11217 33.9528 8.11217 40.4966V40.5101L0 43.2074V40.4966C0 28.93 9.40674 19.5233 20.9767 19.5233C21.5141 19.5233 22.0516 19.5436 22.5755 19.5875C26.8006 19.9086 30.6741 21.4939 33.8379 23.9512V5.45205C36.3222 3.35303 39.0364 1.52779 41.9298 0C41.9365 0 41.9433 0 41.95 0.00676014Z" fill="#191970"/>
<path d="M41.9501 37.793V40.5038C41.9501 52.0704 32.5433 61.4805 20.9733 61.4805C20.5745 61.4805 20.1824 61.467 19.7869 61.4366C15.403 61.1966 11.3739 59.5978 8.11217 57.0526V75.7241C5.61768 77.7589 2.9001 79.5267 0.00676014 81.0038C0.00676014 80.997 0 80.997 0 80.997V51.7696L10.681 48.2137C13.0302 51.3403 16.7719 53.3683 20.9767 53.3683C21.7102 53.3683 22.4234 53.3109 23.1231 53.1858C25.8136 52.7363 28.2202 51.4485 30.0657 49.5928C32.398 47.2673 33.8379 44.0529 33.8379 40.5038V40.4903L41.9534 37.793H41.9501Z" fill="#FAD02C"/>
<path d="M9.16316 18.3693C12.4785 18.3693 15.1662 15.6817 15.1662 12.3663C15.1662 9.05092 12.4785 6.36328 9.16316 6.36328C5.84779 6.36328 3.16016 9.05092 3.16016 12.3663C3.16016 15.6817 5.84779 18.3693 9.16316 18.3693Z" fill="#FAD02C"/>
<path d="M83.613 18.1239V17.0727C83.613 14.8723 83.2209 12.7462 82.4401 10.6878C81.6593 8.6327 80.4864 6.79732 78.9248 5.18841C77.3632 3.57949 75.4028 2.31197 73.0435 1.38583C70.6842 0.46307 67.9261 0 64.7691 0H52.1445V35.3386H64.7691C67.9261 35.3386 70.6808 34.8451 73.0435 33.8548C75.4028 32.8678 77.3632 31.5428 78.9248 29.8866C80.4864 28.2303 81.6593 26.3814 82.4401 24.3399C83.2209 22.3017 83.613 20.2263 83.613 18.1239ZM75.9368 22.2138C75.4096 23.5996 74.6524 24.803 73.6654 25.8237C72.6751 26.8445 71.4718 27.6321 70.0555 28.1898C68.6359 28.7475 67.0202 29.028 65.2017 29.028H58.9385V6.31397H65.2017C67.0202 6.31397 68.6359 6.57086 70.0555 7.07787C71.4752 7.58826 72.6785 8.33863 73.6654 9.32561C74.6524 10.316 75.4096 11.5024 75.9368 12.8882C76.4641 14.274 76.7278 15.8458 76.7278 17.6C76.7278 19.3543 76.4641 20.828 75.9368 22.2138Z" fill="#191970"/>
<path d="M110.046 31.8494C111.127 30.5109 111.864 28.9493 112.246 27.1613H106.125C105.837 28.1178 105.185 28.9223 104.164 29.578C103.144 30.2304 101.822 30.5582 100.196 30.5582C98.5703 30.5582 97.2318 30.2 96.1772 29.4834C95.126 28.7668 94.3418 27.7798 93.8348 26.5191C93.4968 25.6842 93.2805 24.7648 93.1689 23.7677H112.679V21.378C112.679 19.0829 112.202 16.9366 111.246 14.9457C110.289 12.9548 108.863 11.3425 106.966 10.1156C105.07 8.88861 102.718 8.27344 99.9121 8.27344C97.7759 8.27344 95.8933 8.64863 94.2674 9.399C92.6416 10.1494 91.2795 11.1533 90.1776 12.4106C89.079 13.6714 88.2475 15.1046 87.6898 16.7135C87.1321 18.3258 86.8516 19.9888 86.8516 21.7126V22.6218C86.8516 24.2814 87.1321 25.9073 87.6898 27.4993C88.2475 29.0947 89.0756 30.5346 90.1776 31.8258C91.2761 33.117 92.6653 34.1445 94.3384 34.9118C96.0116 35.6757 97.9652 36.061 100.196 36.061C102.427 36.061 104.235 35.6926 105.912 34.9625C107.585 34.229 108.964 33.1913 110.049 31.8528L110.046 31.8494ZM96.1772 14.7767C97.198 14.1074 98.4384 13.7728 99.9088 13.7728C101.379 13.7728 102.596 14.0939 103.566 14.7294C104.536 15.3682 105.263 16.2774 105.743 17.4537C106.013 18.123 106.199 18.8767 106.317 19.7015H93.2771C93.4089 18.9646 93.6016 18.2852 93.8584 17.67C94.3857 16.4126 95.1564 15.4459 96.1772 14.7767Z" fill="#191970"/>
<path d="M126.578 35.1454H128.491H130.976H132.649L139.679 9.17969H133.271L127.984 29.6933H126.852L120.693 9.17969H113.855L121.985 35.1454H123.948H126.578Z" fill="#191970"/>
<path d="M71.6819 40.1363C69.6268 39.1797 67.1289 38.7031 64.1984 38.7031H52.1484V73.8525H58.939V63.141H64.1984C67.1323 63.141 69.6268 62.6543 71.6819 61.6842C73.7369 60.7108 75.3087 59.3418 76.3903 57.5707C77.4753 55.7995 78.0161 53.7039 78.0161 51.2837V50.5199C78.0161 48.0963 77.4753 46.0007 76.3903 44.2329C75.3053 42.4618 73.7369 41.0996 71.6819 40.143V40.1363ZM70.3907 54.1974C69.8972 55.1539 69.1772 55.9043 68.2376 56.4451C67.2979 56.9859 66.1419 57.2597 64.7696 57.2597H58.9356V44.5878H64.7696C66.1385 44.5878 67.2945 44.8515 68.2376 45.3754C69.1772 45.9027 69.8938 46.6429 70.3907 47.5995C70.8842 48.556 71.1309 49.6546 71.1309 50.8984C71.1309 52.1423 70.8842 53.2408 70.3907 54.1974Z" fill="#191970"/>
<path d="M98.3439 63.177C98.3439 64.8671 97.8572 66.2056 96.8838 67.1959C95.9103 68.1829 94.6597 68.6798 93.1285 68.6798C91.5973 68.6798 90.3873 68.21 89.4949 67.2703C88.6026 66.3306 88.1564 65.0631 88.1564 63.4677V47.8281H81.5078V62.8931C81.5078 66.7836 82.3292 69.7175 83.9719 71.6914C85.6146 73.6688 87.9333 74.6557 90.9281 74.6557H91.2154C93.2231 74.6557 94.8963 74.2096 96.2382 73.3172C97.5767 72.4249 98.5806 71.1033 99.2498 69.349C99.4357 68.8623 99.5946 68.3384 99.7264 67.7841V73.8445H104.986V47.8281H98.3372V63.1804L98.3439 63.177Z" fill="#191970"/>
<path d="M108.211 38.9336V43.9057H111.463V73.843H118.108V43.9057V38.9336H111.463H108.211Z" fill="#191970"/>
<path d="M142.992 60.6421C141.255 59.2698 138.855 58.4282 135.796 58.1071L133.501 57.8671C132.098 57.7082 131.088 57.404 130.466 56.9578C129.844 56.5117 129.533 55.8728 129.533 55.0447C129.533 54.2166 129.915 53.4831 130.682 52.9389C131.446 52.3981 132.531 52.1243 133.934 52.1243C135.495 52.1243 136.692 52.4455 137.52 53.0809C138.348 53.7197 138.794 54.4836 138.858 55.376H144.838C144.743 52.6652 143.705 50.6101 141.728 49.2073C139.751 47.8046 137.168 47.1016 133.981 47.1016C131.939 47.1016 130.131 47.4125 128.552 48.0345C126.974 48.6564 125.737 49.5724 124.848 50.7858C123.956 51.9959 123.509 53.4967 123.509 55.2813C123.509 57.5122 124.29 59.3002 125.852 60.6387C127.413 61.9773 129.644 62.8054 132.548 63.1265L134.843 63.3665C136.563 63.5253 137.783 63.8599 138.5 64.3703C139.217 64.8807 139.575 65.5669 139.575 66.4254C139.575 67.4158 139.105 68.1966 138.165 68.7678C137.226 69.3424 135.958 69.6297 134.363 69.6297C132.45 69.6297 131.047 69.2647 130.155 68.5312C129.262 67.7977 128.769 66.9865 128.671 66.0908H122.691C122.786 68.7678 123.847 70.8668 125.872 72.3777C127.897 73.892 130.695 74.6491 134.265 74.6491C136.56 74.6491 138.554 74.2976 140.244 73.5979C141.934 72.8983 143.249 71.918 144.189 70.6573C145.128 69.3999 145.598 67.9093 145.598 66.1854C145.598 63.86 144.729 62.0111 142.992 60.6387V60.6421Z" fill="#191970"/>
<path d="M174.472 60.0811C174.472 57.786 173.995 55.6397 173.039 53.6488C172.082 51.658 170.656 50.0457 168.759 48.8187C166.863 47.5917 164.511 46.9766 161.705 46.9766C159.569 46.9766 157.686 47.3518 156.06 48.1021C154.435 48.8525 153.072 49.8564 151.971 51.1138C150.872 52.3745 150.041 53.8077 149.483 55.4166C148.925 57.0289 148.645 58.6919 148.645 60.4157V61.325C148.645 62.9846 148.925 64.6104 149.483 66.2024C150.041 67.7978 150.869 69.2377 151.971 70.5289C153.069 71.8201 154.458 72.8476 156.131 73.6149C157.805 74.3788 159.758 74.7641 161.989 74.7641C164.22 74.7641 166.028 74.3957 167.705 73.6656C169.378 72.9321 170.757 71.8944 171.842 70.5559C172.924 69.2174 173.66 67.6558 174.042 65.8678H167.921C167.634 66.8243 166.981 67.6288 165.961 68.2845C164.94 68.9369 163.618 69.2647 161.992 69.2647C160.367 69.2647 159.028 68.9065 157.974 68.1899C156.922 67.4733 156.138 66.4863 155.631 65.2256C155.293 64.3907 155.077 63.4713 154.965 62.4742H174.475V60.0845L174.472 60.0811ZM157.974 53.4798C158.994 52.8106 160.235 52.4759 161.705 52.4759C163.175 52.4759 164.392 52.797 165.362 53.4325C166.332 54.0713 167.059 54.9806 167.539 56.1568C167.81 56.8261 167.995 57.5798 168.114 58.4046H155.073C155.205 57.6677 155.398 56.9883 155.655 56.3732C156.182 55.1158 156.953 54.1491 157.974 53.4798Z" fill="#191970"/>
<path d="M181.994 74.6358C184.109 74.6358 185.823 72.9212 185.823 70.8062C185.823 68.6911 184.109 66.9766 181.994 66.9766C179.879 66.9766 178.164 68.6911 178.164 70.8062C178.164 72.9212 179.879 74.6358 181.994 74.6358Z" fill="#FAD02C"/>
</g>
<defs>
<clipPath id="clip0_7240_23661">
<rect width="185.826" height="81" fill="white"/>
</clipPath>
</defs>
</svg>
